<svg xmlns="http://www.w3.org/2000/svg"  viewBox="0 0 48 48" width="50px" height="50px" baseProfile="basic"><path fill="#fb8c00" d="M18,22.928C18,27.938,13.97,32,9,32s-9-4.062-9-9.072s4.03-9.072,9-9.072S18,17.919,18,22.928z"/><path fill="#9ccc65" d="M33.072,22.928C33.072,27.938,29.01,32,24,32s-9.072-4.062-9.072-9.072s4.062-9.072,9.072-9.072	S33.072,17.919,33.072,22.928z"/><path fill="#2196f3" d="M48,22.928C48,27.938,43.97,32,39,32s-9-4.062-9-9.072s4.03-9.072,9-9.072S48,17.919,48,22.928z"/><path fill="#607d8b" d="M18,22.931c0,1.875-0.563,3.607-1.53,5.055c-0.975-1.447-1.545-3.18-1.545-5.055	s0.57-3.607,1.545-5.055C17.437,19.324,18,21.056,18,22.931z"/><path fill="#607d8b" d="M33.075,22.931c0,1.875-0.57,3.607-1.545,5.055c-0.967-1.447-1.53-3.18-1.53-5.055	s0.562-3.607,1.53-5.055C32.505,19.324,33.075,21.056,33.075,22.931z"/></svg>