<svg xmlns="http://www.w3.org/2000/svg"  viewBox="0 0 48 48" width="50px" height="50px"><path fill="#CFD8DC" d="M5 19H43V38H5z"/><path fill="#B0BEC5" d="M5 38H43V42H5z"/><path fill="#E3F2FD" d="M12 24H36V42H12z"/><path fill="#2196F3" d="M13 25H35V42H13z"/><path fill="#64B5F6" d="M35 42L13 42 13 35 35 25z"/><path fill="#D84315" d="M27 19c0 1.656-1.343 3-3 3s-3-1.344-3-3 1.343-3 3-3S27 17.344 27 19M39 19c0 1.656-1.343 3-3 3s-3-1.344-3-3 1.343-3 3-3S39 17.344 39 19M9 19c0 1.656 1.343 3 3 3s3-1.344 3-3-1.343-3-3-3S9 17.344 9 19"/><path fill="#FF5722" d="M40 6H8C6.895 6 6 6.895 6 8v3h36V8C42 6.895 41.104 6 40 6M21 11H27V19H21zM37 11L32 11 33 19 39 19zM11 11L16 11 15 19 9 19z"/><g><path fill="#FFA000" d="M33 19c0 1.656-1.343 3-3 3s-3-1.344-3-3 1.343-3 3-3S33 17.344 33 19M45 19c0 1.656-1.343 3-3 3s-3-1.344-3-3 1.343-3 3-3L45 19zM15 19c0 1.656 1.343 3 3 3s3-1.344 3-3-1.343-3-3-3S15 17.344 15 19M3 19c0 1.656 1.343 3 3 3s3-1.344 3-3-1.343-3-3-3L3 19z"/></g><g><path fill="#FFC107" d="M32 11L27 11 27 19 33 19zM42 11L37 11 39 19 45 19zM16 11L21 11 21 19 15 19zM6 11L11 11 9 19 3 19z"/></g><path fill="#1976D2" d="M23 25H25V42H23z"/><g><path fill="#1E88E5" d="M23 30.454L23 42 25 42 25 29.546zM28 33A1 1 0 1 0 28 35 1 1 0 1 0 28 33zM20 33A1 1 0 1 0 20 35 1 1 0 1 0 20 33z"/></g></svg>